<?xml version="1.0" encoding="iso-8859-1"?>
<!-- Uploaded to: SVG Repo, www.svgrepo.com, Generator: SVG Repo Mixer Tools -->
<svg height="800px" width="800px" version="1.1" id="Layer_1" xmlns="http://www.w3.org/2000/svg" xmlns:xlink="http://www.w3.org/1999/xlink" 
	 viewBox="0 0 512 512" xml:space="preserve">
<polygon style="fill:#E1E2E3;" points="465.067,128 345.6,8.533 251.733,8.533 251.733,503.467 465.067,503.467 "/>
<polygon style="fill:#CACACA;" points="439.467,128 320,8.533 226.133,8.533 226.133,503.467 439.467,503.467 "/>
<polygon style="fill:#FFFFFF;" points="268.8,128 149.333,8.533 55.467,8.533 55.467,503.467 268.8,503.467 "/>
<polygon style="fill:#E1E2E3;" points="413.867,128 311.467,8.533 81.067,8.533 81.067,503.467 413.867,503.467 "/>
<g>
	<polygon style="fill:#EEEEEE;" points="320,8.533 320,128 439.467,128 	"/>
	<path style="fill:#EEEEEE;" d="M222.72,188.587l-21.333-11.093c-1.707-0.853-2.56-2.56-2.56-4.267V166.4
		c11.093-5.12,17.067-13.653,20.48-25.6c4.267-1.707,7.68-5.973,7.68-11.093v-5.973c0-4.267-2.56-8.533-5.973-10.24
		c-2.56-21.333-17.067-29.867-39.253-29.867c-0.853,0-1.707,0-3.413,0c-7.68,0.853-15.36-0.853-22.187-5.12
		c-2.56-1.707-5.12-3.413-6.827-5.973c-0.853-0.853-2.56,0-1.707,0.853c0,1.707,0.853,4.267,0.853,6.827
		c1.707,9.387,0.853,7.68-2.56,17.067c-1.707,5.12-3.413,10.24-4.267,16.213c-3.413,1.707-5.973,5.973-5.973,10.24v5.973
		c0,5.12,3.413,9.387,7.68,11.093c3.413,11.093,9.387,20.48,20.48,25.6v6.827c0,1.707-0.853,3.413-2.56,4.267l-22.187,11.093
		c-3.413,1.707-6.827,5.12-7.68,9.387c13.653,10.24,30.72,16.213,49.493,16.213s34.987-5.973,49.493-16.213
		C229.547,193.707,226.133,190.293,222.72,188.587z"/>
</g>
<g>
	<path style="fill:#B5B5B5;" d="M439.467,512h-384c-5.12,0-8.533-3.413-8.533-8.533V8.533c0-5.12,3.413-8.533,8.533-8.533H320
		c2.56,0,4.267,0.853,5.973,2.56L445.44,122.027c1.707,1.707,2.56,3.413,2.56,5.973v375.467C448,508.587,444.587,512,439.467,512z
		 M64,494.933h366.933v-363.52L316.587,17.067H64V494.933z"/>
	<path style="fill:#B5B5B5;" d="M439.467,136.533H320c-5.12,0-8.533-3.413-8.533-8.533V8.533C311.467,3.413,314.88,0,320,0
		c5.12,0,8.533,3.413,8.533,8.533v110.933h110.933c5.12,0,8.533,3.413,8.533,8.533C448,133.12,444.587,136.533,439.467,136.533z"/>
	<path style="fill:#B5B5B5;" d="M285.867,315.733H140.8c-5.12,0-8.533-3.413-8.533-8.533s3.413-8.533,8.533-8.533h145.067
		c5.12,0,8.533,3.413,8.533,8.533S290.987,315.733,285.867,315.733z"/>
	<path style="fill:#B5B5B5;" d="M371.2,273.067h-59.733c-5.12,0-8.533-3.413-8.533-8.533c0-5.12,3.413-8.533,8.533-8.533H371.2
		c5.12,0,8.533,3.413,8.533,8.533C379.733,269.653,376.32,273.067,371.2,273.067z"/>
	<path style="fill:#B5B5B5;" d="M268.8,273.067h-85.333c-5.12,0-8.533-3.413-8.533-8.533c0-5.12,3.413-8.533,8.533-8.533H268.8
		c5.12,0,8.533,3.413,8.533,8.533C277.333,269.653,273.92,273.067,268.8,273.067z"/>
	<path style="fill:#B5B5B5;" d="M140.8,273.067c-2.56,0-4.267-0.853-5.973-2.56s-2.56-3.413-2.56-5.973c0-0.853,0-0.853,0-1.707
		c0-0.853,0-0.853,0.853-1.707c0-0.853,0.853-0.853,0.853-1.707s0.853-0.853,0.853-0.853c0.853-0.853,1.707-1.707,2.56-1.707
		c1.707-0.853,4.267-0.853,6.827,0c0.853,0.853,1.707,0.853,2.56,1.707l0.853,0.853c0,0.853,0.853,0.853,0.853,1.707
		s0,0.853,0.853,1.707c0,0.853,0,0.853,0,1.707s0,2.56-0.853,3.413s-0.853,1.707-1.707,2.56
		C145.067,272.213,143.36,273.067,140.8,273.067z"/>
	<path style="fill:#B5B5B5;" d="M328.533,315.733c-2.56,0-4.267-0.853-5.973-2.56c-1.707-1.707-2.56-3.413-2.56-5.973
		c0-0.853,0-2.56,0.853-3.413c0-0.853,0.853-1.707,1.707-2.56c0.853-0.853,1.707-1.707,2.56-1.707c1.707-0.853,4.267-0.853,6.827,0
		c0.853,0,1.707,0.853,2.56,1.707c0.853,0.853,1.707,1.707,1.707,2.56c0,0.853,0.853,1.707,0.853,3.413
		c0,2.56-0.853,4.267-2.56,5.973C332.8,314.88,331.093,315.733,328.533,315.733z"/>
	<path style="fill:#B5B5B5;" d="M371.2,315.733c-0.853,0-2.56,0-3.413-0.853c-0.853-0.853-1.707-0.853-2.56-1.707
		c-1.707-1.707-2.56-3.413-2.56-5.973s0.853-4.267,2.56-5.973c3.413-3.413,8.533-3.413,11.947,0c1.707,1.707,2.56,4.267,2.56,5.973
		c0,2.56-0.853,4.267-2.56,5.973C375.467,314.88,373.76,315.733,371.2,315.733z"/>
	<path style="fill:#B5B5B5;" d="M187.733,343.04c-23.893,12.8-27.307,40.107-28.16,64.853c5.12-1.707,9.387-4.267,14.507-5.973
		c-7.68-6.827-16.213-13.653-23.893-20.48c-8.533-6.827-20.48,5.12-11.947,11.947c7.68,6.827,16.213,13.653,23.893,20.48
		c5.973,5.12,14.507,1.707,14.507-5.973c0.853-18.773,1.707-40.107,19.627-50.347C206.507,352.427,197.973,337.92,187.733,343.04
		L187.733,343.04z"/>
	<path style="fill:#B5B5B5;" d="M197.973,390.827c17.92,19.627,41.813,10.24,61.44-1.707c-4.267-0.853-7.68-1.707-11.947-3.413
		c4.267,8.533,11.093,14.507,20.48,16.213c6.827,1.707,34.133-9.387,35.84-7.68c6.827,8.533,21.333,0,14.507-8.533
		c-4.267-5.973-8.533-9.387-16.213-9.387c-12.8-0.853-30.72,18.773-40.107,1.707c-2.56-4.267-7.68-5.12-11.947-3.413
		c-11.947,7.68-28.16,17.92-40.96,4.267C202.24,371.2,190.293,383.147,197.973,390.827L197.973,390.827z"/>
	<path style="fill:#B5B5B5;" d="M181.76,221.867c-19.627,0-38.4-5.973-54.613-17.92c-3.413-2.56-4.267-6.827-2.56-10.24
		c2.56-5.973,6.827-10.24,11.947-12.8l18.773-9.387c-8.533-5.12-14.507-13.653-17.92-23.893c-5.973-3.413-9.387-10.24-9.387-17.067
		v-5.973c0-5.973,2.56-11.093,6.827-14.507c0.853-5.12,2.56-10.24,4.267-14.507c0.853-1.707,1.707-3.413,2.56-5.12
		c0-0.853,0.853-1.707,0.853-2.56c0,0,0-1.707-0.853-5.12c-0.853-2.56-0.853-5.12-0.853-7.68c-0.853-4.267,1.707-8.533,5.973-10.24
		c4.267-1.707,8.533-0.853,11.093,2.56c0.853,0.853,1.707,2.56,4.267,4.267c5.12,5.12,11.093,5.12,16.213,5.12
		c0.853,0,2.56,0,4.267,0c33.28,0,44.373,17.92,46.933,34.133c4.267,3.413,6.827,9.387,6.827,14.507v5.973
		c0,6.827-3.413,13.653-9.387,17.067c-3.413,10.24-9.387,18.773-17.92,23.893l17.92,9.387c5.12,2.56,9.387,6.827,12.8,12.8
		c1.707,3.413,0.853,8.533-2.56,10.24C220.16,215.893,201.387,221.867,181.76,221.867z M145.067,195.413
		c22.187,11.947,50.347,11.947,72.533,0l-20.48-10.24c-4.267-2.56-6.827-6.827-6.827-11.093v-6.827c0-3.413,1.707-6.827,5.12-7.68
		c7.68-3.413,12.8-10.24,15.36-19.627c0.853-2.56,2.56-5.12,5.973-5.973c0.853,0,1.707-0.853,1.707-2.56v-5.973
		c0-0.853-0.853-1.707-1.707-2.56c-2.56-1.707-4.267-3.413-4.267-6.827c-1.707-11.093-5.973-22.187-30.72-22.187
		c-0.853,0-1.707,0-2.56,0c-7.68,0.853-14.507-0.853-20.48-3.413c0,2.56-0.853,4.267-2.56,7.68c-0.853,0.853-0.853,2.56-1.707,4.267
		c-1.707,4.267-2.56,8.533-3.413,13.653c0,2.56-1.707,5.12-4.267,6.827c-0.853,0-1.707,0.853-1.707,2.56v5.973
		c0,1.707,0.853,2.56,1.707,2.56c2.56,0.853,5.12,3.413,5.973,5.973c2.56,10.24,7.68,16.213,15.36,19.627
		c3.413,1.707,5.12,4.267,5.12,7.68v6.827c0,5.12-2.56,9.387-6.827,11.947L145.067,195.413z M143.36,79.36L143.36,79.36
		L143.36,79.36z"/>
</g>
</svg>